<?xml version="1.0" encoding="UTF-8" standalone="no"?>
<!-- Created with Inkscape (http://www.inkscape.org/) -->

<svg
   width="27.723921mm"
   height="41.283215mm"
   viewBox="0 0 27.723921 41.283215"
   version="1.1"
   id="svg5"
   sodipodi:docname="404.svg"
   inkscape:version="1.1.2 (b8e25be833, 2022-02-05)"
   xmlns:inkscape="http://www.inkscape.org/namespaces/inkscape"
   xmlns:sodipodi="http://sodipodi.sourceforge.net/DTD/sodipodi-0.dtd"
   xmlns="http://www.w3.org/2000/svg"
   xmlns:svg="http://www.w3.org/2000/svg">
  <sodipodi:namedview
     id="namedview7"
     pagecolor="#ffffff"
     bordercolor="#666666"
     borderopacity="1.0"
     inkscape:pageshadow="2"
     inkscape:pageopacity="0.0"
     inkscape:pagecheckerboard="0"
     inkscape:document-units="mm"
     showgrid="false"
     inkscape:zoom="4"
     inkscape:cx="67"
     inkscape:cy="144.75"
     inkscape:window-width="1680"
     inkscape:window-height="987"
     inkscape:window-x="1672"
     inkscape:window-y="-8"
     inkscape:window-maximized="1"
     inkscape:current-layer="layer1"
     fit-margin-top="0"
     fit-margin-left="0"
     fit-margin-right="0"
     fit-margin-bottom="0"
     inkscape:lockguides="false" />
  <defs
     id="defs2" />
  <g
     inkscape:label="Layer 1"
     inkscape:groupmode="layer"
     id="layer1"
     style="display:inline">
    <path
       style="fill:#000000;stroke-width:0.0846667"
       id="path836"
       d="" />
    <path
       style="fill:#000000;stroke:#000000;stroke-width:0;stroke-linejoin:round;paint-order:stroke fill markers"
       d="m 13.718961,16.603006 c -0.06324,-0.04002 -0.06459,-0.108897 -0.0092,-0.470561 0.04601,-0.300514 0.04882,-0.439716 0.0097,-0.478843 -0.08195,-0.08196 -0.56098,-0.128839 -1.36643,-0.133731 l -0.717161,-0.0044 0.03128,-0.264115 c 0.0172,-0.145261 0.0778,-0.36019 0.134657,-0.477615 0.189802,-0.391991 1.897957,-2.599198 2.318922,-2.996411 0.143746,-0.135636 0.19358,-0.149979 0.535038,-0.15399 0.207092,-0.0024 0.441735,0.01336 0.52143,0.0351 0.13956,0.03807 0.143648,0.0485 0.1109,0.283078 -0.01871,0.133951 -0.125965,0.719873 -0.238365,1.302049 -0.112398,0.582176 -0.208775,1.183693 -0.214167,1.336707 l -0.0098,0.278204 0.206536,0.05877 c 0.179274,0.05101 0.20865,0.08043 0.222538,0.222842 0.02511,0.257397 -0.06186,0.364316 -0.328879,0.404358 -0.28448,0.04266 -0.353878,0.133278 -0.47625,0.621884 -0.06958,0.277818 -0.116425,0.367911 -0.217739,0.41877 -0.151043,0.07582 -0.407279,0.08474 -0.512974,0.01786 z m 0.08276,-1.738542 c 0.13089,-0.03511 0.191921,-0.170926 0.299112,-0.665623 0.19006,-0.877147 0.285697,-1.729745 0.194024,-1.729745 -0.113506,0 -0.982935,1.008655 -1.529043,1.773896 -0.271886,0.380984 -0.336301,0.53721 -0.255024,0.618487 0.04217,0.04217 1.135417,0.0447 1.290931,0.003 z"
       id="path1788" />
    <path
       style="fill:#000000;stroke:#000000;stroke-width:0;stroke-linejoin:round;paint-order:stroke fill markers"
       d="m 16.845426,16.630632 c -0.297971,-0.11148 -0.58923,-0.421897 -0.678773,-0.723424 -0.08753,-0.294741 -0.09914,-1.043924 -0.02342,-1.510496 0.08581,-0.528706 0.298506,-1.205341 0.523809,-1.666369 0.40282,-0.824267 0.89756,-1.151628 1.749941,-1.157907 0.382294,-0.0028 0.481074,0.01609 0.735857,0.140729 0.637828,0.31206 0.781957,1.032796 0.495027,2.475468 -0.261411,1.31436 -0.786228,2.146798 -1.499743,2.378824 -0.387466,0.125997 -1.049033,0.158081 -1.3027,0.06317 z m 1.154893,-0.657141 c 0.228917,-0.139549 0.282879,-0.207507 0.469392,-0.59114 0.24756,-0.509204 0.413615,-1.248688 0.446307,-1.987534 0.03219,-0.727384 -0.01558,-0.964036 -0.228426,-1.131451 -0.169902,-0.133649 -0.545875,-0.138104 -0.790434,-0.0094 -0.2154,0.113385 -0.467165,0.468074 -0.620432,0.874075 -0.189664,0.502417 -0.369004,1.442117 -0.376804,1.974371 -0.0081,0.550738 0.06713,0.765982 0.314539,0.900221 0.20978,0.113826 0.573432,0.10033 0.785858,-0.02917 z"
       id="path1866" />
    <path
       style="fill:#000000;stroke:#000000;stroke-width:0;stroke-linejoin:round;paint-order:stroke fill markers"
       d="m 22.186972,16.603006 c -0.06324,-0.04002 -0.06459,-0.108897 -0.0092,-0.470561 0.046,-0.300514 0.04882,-0.439716 0.0097,-0.478843 -0.05071,-0.05071 -0.254151,-0.08808 -0.592027,-0.110317 -0.206784,-0.01361 -0.46392,-0.02155 -0.767212,-0.02341 l -0.709969,-0.0044 V 15.36994 c 0,-0.301945 0.164166,-0.668213 0.524922,-1.171141 0.480711,-0.670155 1.682467,-2.169536 1.922706,-2.398879 0.177768,-0.169704 0.205714,-0.178663 0.56075,-0.17975 0.205515,-5.29e-4 0.439447,0.01677 0.519851,0.03865 0.173066,0.04711 0.182832,-0.07175 -0.130202,1.584746 -0.115382,0.610574 -0.212653,1.223759 -0.216156,1.362628 -0.0063,0.252045 -0.006,0.252598 0.200168,0.31116 0.1793,0.05093 0.208647,0.0803 0.222538,0.222737 0.02511,0.257397 -0.06186,0.364316 -0.32888,0.404358 -0.28448,0.04266 -0.353877,0.133278 -0.47625,0.621884 -0.06958,0.277818 -0.116424,0.367911 -0.217739,0.41877 -0.151042,0.07582 -0.407278,0.08474 -0.512974,0.01786 z m 0.08464,-1.739032 c 0.161375,-0.04327 0.288049,-0.466762 0.453787,-1.517097 0.08794,-0.557276 0.09936,-0.877781 0.03128,-0.877781 -0.08461,0 -0.782079,0.785667 -1.254043,1.412631 -0.753409,1.000834 -0.75243,1.014471 0.07264,1.013471 0.320379,-2.65e-4 0.633728,-0.01445 0.696328,-0.03122 z"
       id="path1905"
       sodipodi:nodetypes="cccsccsssccscscsssccsssscss" />
    <path
       style="fill:#000000;stroke:#000000;stroke-width:0;stroke-linejoin:round;paint-order:stroke fill markers"
       d="m 21.464521,3.9002473 c 0,-0.9940102 0.01445,-1.8072895 0.03213,-1.8072895 0.01765,0 1.051447,-1.84885478 1.671121,-0.5739605 l 2.342436,3.8171473 -2.176122,0.3713921 h -1.869558 z"
       id="path1983"
       sodipodi:nodetypes="csscccc" />
    <path
       style="fill:#999999;stroke:#000000;stroke-width:0;stroke-linejoin:round;paint-order:stroke fill markers"
       d=""
       id="path2061" />
    <path
       style="fill:#000000;stroke:#000000;stroke-width:0;stroke-linejoin:round;paint-order:stroke fill markers"
       d="m 60.261689,103.13432 c -1.061055,0.16565 -3.371859,-0.0297 -3.857995,0.0587 C 55.165734,85.849653 48.796862,75.839432 31.775158,74.905084 L 31.557789,37.294786 31.517199,3.2200234 31.9201,2.4520075 C 32.170169,1.9753239 32.614335,1.5311585 33.091018,1.2810899 33.855643,0.87996773 33.971585,0.87818821 59.341709,0.87818821 H 84.824385 L 85.589778,1.4502915 C 86.580027,2.1904632 102.14349,17.751746 103.15138,19.009434 l 0.76756,0.957787 0.0623,26.851506 c 0.0343,14.768329 0.002,33.195801 -0.0723,40.94994 l -0.13467,14.098433 -0.70828,0.44046 -0.70829,0.44046 -20.58863,0.12143 M 60.06069,97.433123 c 0.508534,0.04015 9.377167,0.08883 19.708076,0.108172 l 18.78347,0.03518 -3e-6,-35.779596 V 26.017292 l -3.951847,-0.12804 c -2.173516,-0.07042 -5.620405,-0.133338 -7.659753,-0.139815 -2.039348,-0.0065 -4.704796,-0.0835 -5.92322,-0.171155 -3.500001,-0.251806 -3.503805,-0.260147 -3.527451,-7.739292 -0.0078,-2.478312 -0.07201,-6.100838 -0.14262,-8.0500588 L 77.21897,6.2448939 H 57.041505 36.864042 l 0.03009,16.2525251 0.03052,16.48438 c 0.03333,18.005298 0.131149,32.880508 0.217367,33.056021 15.220716,4.992635 17.430587,7.92764 20.930149,21.420533 0.274195,1.03062 0.625746,2.330137 0.781226,2.887814 l 0.282691,1.013956 M 98.854034,21.855602 C 100.56933,23.775752 94.526978,20.410788 93.205849,18.95892 91.135792,16.684011 86.491293,9.5323689 84.475112,7.797094 l -1.419541,-1.2217612 -0.15123,0.5654655 c -0.232347,0.8687803 -0.428696,9.1121087 -0.267753,11.2410687 0.130393,1.724836 0.180136,1.899127 0.564716,1.978669 0.231951,0.04797 3.249618,0.07502 6.705925,0.06009 4.45871,-0.01926 4.745886,-1.135732 4.759305,-1.12752 z"
       id="page"
       sodipodi:nodetypes="cccccssscssccccccccscccscscsccccsccsccsscsssssc"
       transform="scale(0.26458333)" />
    <path
       style="fill:#000000;stroke:#000000;stroke-width:0;stroke-linejoin:round;paint-order:stroke fill markers"
       d="m 14.076515,27.428344 c -0.06271,0.251248 -0.194944,0.678833 -0.293892,0.95019 -0.09894,0.271349 -0.179904,0.521776 -0.179918,0.556507 -7e-6,0.03475 0.836584,0.909479 1.859102,1.943895 1.945862,1.968504 2.284288,2.341384 2.332877,2.570465 0.016,0.07529 0.02902,0.442031 0.02902,0.814968 v 0.678069 l -0.134882,0.272121 c -0.256337,0.51712 -0.753979,1.00425 -1.168328,1.143641 -0.170052,0.05719 -0.679393,0.133636 -0.888571,0.133325 -0.06087,-7.1e-5 -0.296589,-0.06462 -0.5239,-0.143425 v 0 C 14.828512,36.251219 14.627389,36.154805 14.486746,36.050287 14.294399,35.907357 11.00666,32.644469 10.316184,31.911257 10.072099,31.65206 9.9968189,31.592493 9.9344421,31.609175 9.4700027,31.733341 8.1663111,31.727488 7.5826884,31.598629 5.5927528,31.159238 4.0751837,29.72799 3.5020078,27.750073 3.0417515,26.161825 3.3800075,24.32305 4.3786735,22.984451 4.5820546,22.711841 5.0776434,22.20892 5.3548674,21.993818 6.2752951,21.279624 7.378826,20.974676 8.6921435,20.790766 m 7.4322955,14.783049 c 0.352016,-0.07682 0.701398,-0.442413 0.8434,-0.882561 0.09748,-0.30211 0.08582,-0.686591 -0.02852,-0.940473 -0.04388,-0.09746 -0.279892,-0.387786 -0.579298,-0.712644 -0.643487,-0.698184 -3.222834,-3.281545 -3.336299,-3.34148 -0.0788,-0.04162 -0.09639,-0.03263 -0.219278,0.111872 -0.393753,0.46313 -0.888287,0.858398 -1.5119,1.208445 -0.215363,0.120889 -0.410527,0.242642 -0.4337,0.270564 -0.03376,0.0407 0.03093,0.128922 0.325219,0.443857 0.707775,0.757383 3.67292,3.671158 3.861869,3.794956 0.166322,0.108984 0.690795,0.132065 1.07849,0.04749 z M 9.4788925,30.695988 c 0.5413465,-0.06965 0.7781915,-0.143842 1.2367705,-0.387397 1.1947,-0.634512 2.029395,-1.578212 2.306852,-2.608105 0.06349,-0.235727 0.08149,-0.428003 0.0955,-1.021315 0.0206,-0.87031 -0.265701,-1.479746 -0.418306,-1.865812 -0.82509,-2.08739 -2.277019,-3.128934 -3.98014,-3.012468 -0.7664569,0.05238 -1.3310969,0.128519 -2.0179496,0.464057 -1.2010208,0.586709 -2.0240224,1.626178 -2.366518,2.988941 -0.1260842,0.501662 -0.1566463,1.217994 -0.072505,1.699377 0.2606407,1.49119 1.1627369,2.711392 2.460285,3.327856 0.9176957,0.436 1.6892062,0.552133 2.7560111,0.414866 z m -0.786749,-9.905222 c 6.3536435,0.557909 5.3843715,6.637578 5.3843715,6.637578"
       id="magnifing-glass"
       sodipodi:nodetypes="cssssscsscssssscssscsssssssssssscsssssssssccc"
       inkscape:label="magnifing-glass" />
    <path
       style="fill:#000000;stroke:#000000;stroke-width:0;stroke-linejoin:round;paint-order:stroke fill markers"
       d="M 5.2670387,28.428404 C 4.7232853,27.269319 4.7190528,25.97996 5.2553603,24.864984 5.4993822,24.357632 5.9647134,23.783678 6.3983996,23.455111 6.7612227,23.18023 7.3539404,22.864333 7.6324242,22.797419 c 0.1418537,-0.03411 0.1330559,-0.01961 -0.1033644,0.170024 -0.4585365,0.367791 -1.034409,1.030792 -1.4296414,1.645932 -0.3737017,0.581641 -0.6043112,1.249907 -0.7164946,2.076306 -0.073241,0.539507 -0.043246,1.600394 0.052588,1.860886 0.128696,0.349779 0.013873,0.266515 -0.168445,-0.122163 z"
       id="path1944" />
  </g>
</svg>
