<svg width="10" height="21" viewBox="0 0 10 21" fill="none" xmlns="http://www.w3.org/2000/svg">
<path d="M8.99537 20.9959C8.86391 20.9967 8.7336 20.9687 8.6119 20.9134C8.49021 20.8582 8.37952 20.7767 8.28619 20.6737L0.295456 11.7869C0.201836 11.6836 0.127528 11.5608 0.0768181 11.4254C0.0261082 11.29 0 11.1448 0 10.9982C0 10.8515 0.0261082 10.7063 0.0768181 10.571C0.127528 10.4356 0.201836 10.3127 0.295456 10.2095L8.28619 1.3226C8.47428 1.11343 8.72937 0.995911 8.99537 0.995911C9.26136 0.995911 9.51646 1.11343 9.70454 1.3226C9.89263 1.53178 9.99829 1.81549 9.99829 2.11131C9.99829 2.40714 9.89263 2.69084 9.70454 2.90002L2.413 10.9982L9.70454 19.0963C9.79816 19.1996 9.87247 19.3225 9.92318 19.4578C9.97389 19.5932 10 19.7384 10 19.885C10 20.0317 9.97389 20.1769 9.92318 20.3122C9.87247 20.4476 9.79816 20.5705 9.70454 20.6737C9.61121 20.7767 9.50053 20.8582 9.37883 20.9134C9.25713 20.9687 9.12682 20.9967 8.99537 20.9959Z" fill="black"/>
</svg>
