<?xml version="1.0" encoding="UTF-8" standalone="no"?>
<svg
   viewBox="0 0 570 425"
   version="1.1"
   id="svg8"
   sodipodi:docname="missing-news.svg"
   width="570"
   height="425"
   inkscape:version="1.1.2 (b8e25be833, 2022-02-05)"
   xmlns:inkscape="http://www.inkscape.org/namespaces/inkscape"
   xmlns:sodipodi="http://sodipodi.sourceforge.net/DTD/sodipodi-0.dtd"
   xmlns="http://www.w3.org/2000/svg"
   xmlns:svg="http://www.w3.org/2000/svg">
  <defs
     id="defs12" />
  <sodipodi:namedview
     id="namedview10"
     pagecolor="#ffffff"
     bordercolor="#666666"
     borderopacity="1.0"
     inkscape:pageshadow="2"
     inkscape:pageopacity="0.0"
     inkscape:pagecheckerboard="0"
     showgrid="false"
     fit-margin-top="0"
     fit-margin-left="0"
     fit-margin-right="0"
     fit-margin-bottom="0"
     inkscape:zoom="0.94520693"
     inkscape:cx="225.34748"
     inkscape:cy="286.70971"
     inkscape:window-width="1680"
     inkscape:window-height="987"
     inkscape:window-x="-8"
     inkscape:window-y="-8"
     inkscape:window-maximized="1"
     inkscape:current-layer="layer1"
     height="400px" />
  <path
     d="m 352.93,85.27 h 61.75 c 4.42,0 8.01,3.59 8.01,8.01 v 59.53 c -3.41,2.16 -6.6,5.11 -9.43,8.97 l -6.59,8.99 v -69.48 h -53.74 v 102.27 c -2.97,5.22 -4.75,10.93 -6.32,16.27 l -1.06,3.42 c -2.2,6.98 -5.18,13.4 -8.63,19.34 V 16.02 c -91.28226,0.54084 -171.08652,1.47748 -320.9,0 v 318.24 c 0.65,9.63 3.5,16.9 8.58,21.73 5.18,4.93 13.02,7.72 23.58,8.34 l 236.1,-0.01 c 3.02,5.74 6.8,11.22 11.14,16.02 H 48.37 L 47.3,380.27 C 32.81,379.43 21.59,375.17 13.59,367.56 5.55,359.92 1.07,349.26 0.09,335.66 0.03,335.25 0,334.83 0,334.4 V 8.01 C 0,3.59 3.59,0 8.01,0 h 336.92 c 4.42,0 8,3.59 8,8.01 z M 191.91,321.55 c -4.09,0 -7.41,-3.31 -7.41,-7.4 0,-4.09 3.32,-7.41 7.41,-7.41 h 96.69 c 4.09,0 7.4,3.32 7.4,7.41 0,4.09 -3.31,7.4 -7.4,7.4 z M 64.35,321.5 c -4.06,0 -7.36,-3.29 -7.36,-7.35 0,-4.06 3.3,-7.36 7.36,-7.36 h 89.21 c 4.06,0 7.36,3.3 7.36,7.36 0,4.06 -3.3,7.35 -7.36,7.35 z m 127.56,-43.42 c -4.09,0 -7.41,-3.31 -7.41,-7.4 0,-4.09 3.32,-7.4 7.41,-7.4 h 96.69 c 4.09,0 7.4,3.31 7.4,7.4 0,4.09 -3.31,7.4 -7.4,7.4 z M 64.35,278.04 c -4.06,0 -7.36,-3.3 -7.36,-7.36 0,-4.06 3.3,-7.36 7.36,-7.36 h 89.21 c 4.06,0 7.36,3.3 7.36,7.36 0,4.06 -3.3,7.36 -7.36,7.36 z m 0,-43.48 c -4.06,0 -7.36,-3.3 -7.36,-7.36 0,-4.05 3.3,-7.35 7.36,-7.35 h 89.21 c 4.06,0 7.35,3.3 7.35,7.35 0,4.06 -3.29,7.36 -7.35,7.36 z m 127.56,0.05 c -4.09,0 -7.41,-3.32 -7.41,-7.41 0,-4.08 3.32,-7.4 7.41,-7.4 h 96.69 c 4.09,0 7.4,3.32 7.4,7.4 0,4.09 -3.31,7.41 -7.4,7.41 z"
     id="path2" />
  <g
     id="g6">
    <path
       d="m 58.90625,78.78133 h -8.4 v -4 l 8,-18.92 h 4.8 v 18.92 h 2.08 v 4 h -2.08 v 5.08 h -4.4 z m 0,-4 v -10.92 h -0.08 l -4.32,10.92 z m 14.99998,9.48 q -3.24,0 -4.96,-1.84 -1.72,-1.84 -1.72,-5.2 v -14.72 q 0,-3.36 1.72,-5.2 1.72,-1.84 4.96,-1.84 3.24,0 4.96,1.84 1.72,1.84 1.72,5.2 v 14.72 q 0,3.36 -1.72,5.2 -1.72,1.84 -4.96,1.84 z m 0,-4 q 2.28,0 2.28,-2.76 v -15.28 q 0,-2.76 -2.28,-2.76 -2.28,0 -2.28,2.76 v 15.28 q 0,2.76 2.28,2.76 z m 16.99999,-1.48 h -8.4 v -4 l 8,-18.92 h 4.8 v 18.92 h 2.08 v 4 h -2.08 v 5.08 h -4.4 z m 0,-4 v -10.92 h -0.08 l -4.32,10.92 z"
       transform="matrix(4.72315,0,0,5.18976,-169.51405,-248.84709)"
       id="path4" />
  </g>
  <g
     inkscape:groupmode="layer"
     id="layer1"
     inkscape:label="Speaker"
     style="display:inline">
    <path
       fill-rule="nonzero"
       d="m 303.95901,332.62027 c -0.83287,3.53968 -0.60156,7.40327 0.34714,11.25527 2.97288,12.07657 14.84122,28.43314 28.79174,29.65928 8.10889,0.69405 19.82686,-7.71557 27.40364,-12.51612 0.96008,-0.57839 2.08217,-0.80976 3.12322,-0.69407 3.26208,0.289 4.16433,3.05385 5.52933,5.45993 2.7878,5.03189 5.56403,10.07537 8.50219,15.03786 2.61428,4.37253 5.22857,8.46748 7.90065,12.01873 l 0.0576,0.0927 0.31218,0.42803 c 0.27761,0.39347 0.70563,0.9948 1.15673,1.58477 l 0.0808,0.10408 c 1.61947,2.22097 3.29678,4.52292 5.03191,6.59353 1.66574,1.98962 3.33147,3.7132 4.91624,4.84681 1.12205,0.77504 2.25568,1.16834 3.36617,0.9023 3.1001,-0.71719 7.72717,-8.67571 9.08056,-11.62542 0.55525,-1.19151 0.94856,-2.42922 1.1105,-3.71323 -0.58996,-0.16176 -1.3534,-0.25445 -2.11688,-0.34715 l -0.0576,-0.0131 c -12.51612,-1.49221 -11.61387,-7.72712 -13.27962,-16.28715 -0.27761,-1.24932 -0.57837,-0.94857 -2.01273,-1.64262 -2.12843,-0.97168 -3.62068,-2.11688 -5.02033,-4.00238 -2.4986,-3.35461 -3.40089,-7.94696 -3.63221,-12.04186 -0.62468,-11.35939 2.03586,-10.93137 10.74629,-14.41324 12.13437,-4.83527 22.70719,-7.5305 32.06537,-9.02271 9.36974,-1.49221 17.51334,-1.78141 24.83561,-1.86239 -15.142,-10.02911 -30.71196,-26.08496 -43.79492,-43.96848 -13.42997,-18.33465 -24.31509,-38.64732 -29.57833,-56.46141 -3.51653,10.27203 -8.5369,22.73033 -17.05063,36.29909 -9.68206,15.45433 -55.23525,53.22252 -57.81481,64.3274 z M 404.0765,264.17484 c 5.11288,-2.02434 10.16794,-2.93821 15.142,-2.38297 14.41323,1.793 24.63895,12.85162 22.846,26.80214 -0.43957,5.40204 -2.34821,11.33626 -5.76069,17.83724 2.84565,2.72994 5.86479,5.47144 9.10374,8.28239 4.63856,4.01396 9.3466,7.57676 14.0546,10.51491 4.26848,2.67213 8.54843,4.85839 12.79374,6.42003 5.58717,-1.12201 4.95095,-8.72196 4.4304,-13.21019 -0.94852,-7.50738 -4.17589,-16.5301 -8.94172,-26.15433 -5.217,-10.57277 -12.26165,-21.81647 -20.15075,-32.52806 -7.73871,-10.52652 -16.27561,-20.52092 -24.69685,-28.87272 -5.47148,-5.44834 -10.90823,-10.17948 -15.97481,-13.90425 -4.34946,-3.15795 -12.12288,-8.22456 -17.67532,-8.40963 -2.74151,-0.0926 -3.20419,1.05264 -3.40085,3.69005 -0.34714,3.96768 0.32398,8.95331 1.82768,14.633 1.82766,6.80174 4.86996,14.58675 8.88391,22.76503 1.59635,3.26206 7.51892,14.8181 7.51892,14.51736 z m 42.85799,78.48611 c -13.71919,0.46269 -30.48066,2.40604 -52.45908,11.87991 -0.0349,1.04106 -0.0131,2.13998 0.0808,3.22733 0.11586,1.6426 0.65934,5.80694 2.35979,6.67453 0.89071,0.41664 1.82768,0.85597 2.71837,1.33026 1.78142,0.93697 2.91503,1.78142 3.96769,3.51654 l 0.022,0.0463 c 2.38292,3.84041 0.79815,11.72953 6.07296,12.41202 h 0.0218 c 8.23613,0.93697 11.16274,4.82368 11.13961,9.87874 -0.0131,6.2465 -7.65774,19.81526 -13.73075,24.03744 -1.66573,1.1452 -3.343,1.8624 -5.02033,2.16314 -3.77103,0.68248 -7.36852,-0.56684 -10.82727,-2.98445 -2.79934,-1.94336 -5.37891,-4.71958 -7.79654,-7.71559 -5.20544,-6.4547 -10.30675,-13.80015 -14.45949,-20.82167 -2.51019,-4.23372 -5.13601,-8.95329 -7.78502,-13.73071 l -0.0696,0.035 c -1.97808,1.23772 -3.87517,2.55645 -5.84166,3.80576 -7.05624,4.56917 -13.71917,8.31707 -23.40123,7.35698 -18.61224,-1.8971 -34.32106,-21.94374 -37.81449,-39.20257 -0.97166,-4.85841 -1.07576,-9.76308 0.022,-14.37852 5.71441,-24.21098 59.14511,-50.06457 78.25479,-110.95638 l 0.0219,-0.0926 c 2.40606,-7.69247 4.62704,-19.1791 14.06619,-20.3821 6.33905,-0.84444 13.11767,2.03588 18.51972,5.11287 l 0.0927,0.0577 c 7.57678,4.33785 16.07891,11.2437 24.61583,19.68806 8.87234,8.7798 17.83722,19.26003 25.93456,30.29552 8.32867,11.31312 15.78976,23.22776 21.31907,34.51771 5.11289,10.42238 8.59471,20.37053 9.67053,28.838 0.43955,3.59756 0.47422,6.96368 0.0219,10.05224 -1.37659,9.82087 -5.96889,13.62661 -16.31034,14.81807 -6.70919,0.76348 -16.31029,0.30078 -23.41278,0.52057 z"
       id="path3078-5"
       sodipodi:nodetypes="cccccccccccccccccccccccccccccccccccccccccccccccccccccccccccccccccccccccccccccccccc"
       style="stroke-width:1.15677" />
  </g>
  <circle
     id="path1133"
     style="fill:#999999;stroke:#000000"
     cx="439.88123"
     cy="193.00911"
     r="0" />
  <circle
     id="path1135"
     style="fill:#999999;stroke:#000000"
     cx="439.88123"
     cy="193.00911"
     r="0" />
  <path
     style="fill:none;stroke:#000000;stroke-width:5.6;stroke-linecap:butt;stroke-linejoin:miter;stroke-miterlimit:4;stroke-dasharray:none;stroke-opacity:1"
     d="m 427.73794,193.26582 29.92389,-47.87823"
     id="line1"
     sodipodi:nodetypes="cc" />
  <path
     d="m 477.11439,236.14496 45.25988,-39.27511"
     style="fill:none;stroke:#000000;stroke-width:5.6;stroke-linecap:butt;stroke-linejoin:miter;stroke-miterlimit:4;stroke-dasharray:none;stroke-opacity:1"
     id="line2"
     sodipodi:nodetypes="cc"
     inkscape:label="line2" />
  <path
     d="M 503.66216,297.95318 568.5596,287.29279"
     style="fill:none;stroke:#000000;stroke-width:5.6;stroke-linecap:butt;stroke-linejoin:miter;stroke-miterlimit:4;stroke-dasharray:none;stroke-opacity:1"
     id="line3"
     sodipodi:nodetypes="cc"
     inkscape:label="line3" />
</svg>
